<?xml version="1.0" encoding="UTF-8" standalone="no"?>
<!DOCTYPE svg PUBLIC "-//W3C//DTD SVG 1.1//EN"
 "http://www.w3.org/Graphics/SVG/1.1/DTD/svg11.dtd">
<!-- Generated by graphviz version 2.38.0 (20140413.2041)
 -->
<!-- Title: G Pages: 1 -->
<svg width="374pt" height="168pt"
 viewBox="0.00 0.00 374.20 168.20" xmlns="http://www.w3.org/2000/svg" xmlns:xlink="http://www.w3.org/1999/xlink">
<g id="graph0" class="graph" transform="scale(1 1) rotate(0) translate(21.6 146.6)">
<title>G</title>
<polygon fill="#111111" stroke="none" points="-21.6,21.6 -21.6,-146.6 352.6,-146.6 352.6,21.6 -21.6,21.6"/>
<!-- App.css -->
<g id="node1" class="node"><title>App.css</title>
<path fill="none" stroke="#cfffac" d="M322.333,-125C322.333,-125 268.667,-125 268.667,-125 264.833,-125 261,-121.167 261,-117.333 261,-117.333 261,-109.667 261,-109.667 261,-105.833 264.833,-102 268.667,-102 268.667,-102 322.333,-102 322.333,-102 326.167,-102 330,-105.833 330,-109.667 330,-109.667 330,-117.333 330,-117.333 330,-121.167 326.167,-125 322.333,-125"/>
<text text-anchor="middle" x="295.5" y="-109.8" font-family="Arial" font-size="14.00" fill="#cfffac">App.css</text>
</g>
<!-- App.js -->
<g id="node2" class="node"><title>App.js</title>
<path fill="none" stroke="#c6c5fe" d="M183.333,-105C183.333,-105 141.667,-105 141.667,-105 137.833,-105 134,-101.167 134,-97.3333 134,-97.3333 134,-89.6667 134,-89.6667 134,-85.8333 137.833,-82 141.667,-82 141.667,-82 183.333,-82 183.333,-82 187.167,-82 191,-85.8333 191,-89.6667 191,-89.6667 191,-97.3333 191,-97.3333 191,-101.167 187.167,-105 183.333,-105"/>
<text text-anchor="middle" x="162.5" y="-89.8" font-family="Arial" font-size="14.00" fill="#c6c5fe">App.js</text>
</g>
<!-- App.js&#45;&gt;App.css -->
<g id="edge1" class="edge"><title>App.js&#45;&gt;App.css</title>
<path fill="none" stroke="#757575" d="M191.282,-97.7415C208.55,-100.378 231.124,-103.824 250.756,-106.822"/>
<polygon fill="#757575" stroke="#757575" points="250.297,-110.292 260.711,-108.341 251.354,-103.372 250.297,-110.292"/>
</g>
<!-- logo.svg -->
<g id="node3" class="node"><title>logo.svg</title>
<path fill="none" stroke="#cfffac" d="M323.333,-84C323.333,-84 267.667,-84 267.667,-84 263.833,-84 260,-80.1667 260,-76.3333 260,-76.3333 260,-68.6667 260,-68.6667 260,-64.8333 263.833,-61 267.667,-61 267.667,-61 323.333,-61 323.333,-61 327.167,-61 331,-64.8333 331,-68.6667 331,-68.6667 331,-76.3333 331,-76.3333 331,-80.1667 327.167,-84 323.333,-84"/>
<text text-anchor="middle" x="295.5" y="-68.8" font-family="Arial" font-size="14.00" fill="#cfffac">logo.svg</text>
</g>
<!-- App.js&#45;&gt;logo.svg -->
<g id="edge2" class="edge"><title>App.js&#45;&gt;logo.svg</title>
<path fill="none" stroke="#757575" d="M191.282,-89.0464C208.216,-86.3318 230.253,-82.7991 249.615,-79.6954"/>
<polygon fill="#757575" stroke="#757575" points="250.429,-83.1096 259.749,-78.0708 249.321,-76.1978 250.429,-83.1096"/>
</g>
<!-- index.css -->
<g id="node4" class="node"><title>index.css</title>
<path fill="none" stroke="#cfffac" d="M193.333,-64C193.333,-64 131.667,-64 131.667,-64 127.833,-64 124,-60.1667 124,-56.3333 124,-56.3333 124,-48.6667 124,-48.6667 124,-44.8333 127.833,-41 131.667,-41 131.667,-41 193.333,-41 193.333,-41 197.167,-41 201,-44.8333 201,-48.6667 201,-48.6667 201,-56.3333 201,-56.3333 201,-60.1667 197.167,-64 193.333,-64"/>
<text text-anchor="middle" x="162.5" y="-48.8" font-family="Arial" font-size="14.00" fill="#cfffac">index.css</text>
</g>
<!-- index.js -->
<g id="node5" class="node"><title>index.js</title>
<path fill="none" stroke="#c6c5fe" d="M57.3333,-64C57.3333,-64 7.66667,-64 7.66667,-64 3.83333,-64 0,-60.1667 0,-56.3333 0,-56.3333 0,-48.6667 0,-48.6667 0,-44.8333 3.83333,-41 7.66667,-41 7.66667,-41 57.3333,-41 57.3333,-41 61.1667,-41 65,-44.8333 65,-48.6667 65,-48.6667 65,-56.3333 65,-56.3333 65,-60.1667 61.1667,-64 57.3333,-64"/>
<text text-anchor="middle" x="32.5" y="-48.8" font-family="Arial" font-size="14.00" fill="#c6c5fe">index.js</text>
</g>
<!-- index.js&#45;&gt;App.js -->
<g id="edge3" class="edge"><title>index.js&#45;&gt;App.js</title>
<path fill="none" stroke="#757575" d="M65.1405,-62.6348C82.9625,-68.3435 105.328,-75.5073 124.024,-81.496"/>
<polygon fill="#757575" stroke="#757575" points="123.11,-84.8784 133.701,-84.5957 125.246,-78.212 123.11,-84.8784"/>
</g>
<!-- index.js&#45;&gt;index.css -->
<g id="edge4" class="edge"><title>index.js&#45;&gt;index.css</title>
<path fill="none" stroke="#757575" d="M65.1405,-52.5C79.7155,-52.5 97.3292,-52.5 113.49,-52.5"/>
<polygon fill="#757575" stroke="#757575" points="113.853,-56.0001 123.853,-52.5 113.853,-49.0001 113.853,-56.0001"/>
</g>
<!-- serviceWorker.js -->
<g id="node6" class="node"><title>serviceWorker.js</title>
<path fill="none" stroke="#cfffac" d="M216.333,-23C216.333,-23 108.667,-23 108.667,-23 104.833,-23 101,-19.1667 101,-15.3333 101,-15.3333 101,-7.66667 101,-7.66667 101,-3.83333 104.833,-0 108.667,-0 108.667,-0 216.333,-0 216.333,-0 220.167,-0 224,-3.83333 224,-7.66667 224,-7.66667 224,-15.3333 224,-15.3333 224,-19.1667 220.167,-23 216.333,-23"/>
<text text-anchor="middle" x="162.5" y="-7.8" font-family="Arial" font-size="14.00" fill="#cfffac">serviceWorker.js</text>
</g>
<!-- index.js&#45;&gt;serviceWorker.js -->
<g id="edge5" class="edge"><title>index.js&#45;&gt;serviceWorker.js</title>
<path fill="none" stroke="#757575" d="M65.1405,-42.3652C80.3645,-37.4887 98.9036,-31.5504 115.639,-26.1898"/>
<polygon fill="#757575" stroke="#757575" points="116.79,-29.4965 125.246,-23.1128 114.654,-22.8301 116.79,-29.4965"/>
</g>
</g>
</svg>
